<?xml version='1.0' encoding='utf-8'?>
<!-- Generator: imaengine 6.0   -->
<svg fill="currentColor" xmlns:xlink="http://www.w3.org/1999/xlink" xmlns="http://www.w3.org/2000/svg" viewBox="0,0,1356,1356" style="enable-background:new 0 0 1356 1356;" version="1.1">
<defs/>
<g id="layer0">
<path d="M616.734,1350.37C627.041,1350.37 638.89,1350.45 647.989,1350.45C643.85,1350.66 635.347,1348.58 628.229,1347.95C621.112,1347.31 615.125,1348.02 616.734,1350.37Z" fill-rule="evenodd" fill="currentColor"/>
<path d="M647.972,1350.45C670.1,1350.45 692.993,1350.45 714.011,1350.45C928.143,1339.61 969.485,1155.44 1081.33,1042.31C1111.87,999.807 1146.56,960.115 1161.44,903.114C1171.27,862.014 1171.25,801.907 1161.41,760.805L1160,761L1160,760L1159,760L1158,757L1157.45,757C1154.18,734.787 1144.16,718.311 1137.36,700.724L1136,701L1135,699L1134.45,699C1129.3,686.732 1120.78,676.609 1114.37,666.739C1111.83,664.2 1107.11,660.106 1105,656.297C1102.89,652.489 1103.17,649.651 1111.16,648.422C1118.21,643.124 1131.52,642.759 1137.28,637.354C1146,632.704 1154.54,626.533 1158.41,618.2C1220.91,535.557 1282.73,453.093 1345.25,369.376L1346,368L1347,367L1348.45,366C1348.27,361.009 1349.27,355.506 1350.41,353.191C1350.41,344.593 1350.45,334.359 1350.45,327L1349.45,327C1349.96,307.385 1336.98,299.991 1328.32,290.676C1191.37,189.317 1041.62,100.323 866.08,37.5551C863.342,37.5551 858.362,37.5559 857.084,37.5559C832.964,27.6797 804.119,22.5126 779.08,13.5551C774.967,13.5551 768.792,13.552 766.06,13.552C761.214,12.2075 753.063,12.7889 751.3,9.66182L750,10L750,9L748,9L748,8C740.776,8 732.07,7.56321 726.116,7.56321C722.316,5.1732 711.538,8.17559 709.219,5.60467C703.375,5.60467 695.533,5.548 691,5.548L690,6L690,5C678.332,5 665.479,4.548 655,4.548L654,6C647.81,6 639.888,5.54801 634.997,5.54801C557.572,6.44779 503.741,31.4636 463.657,69.7053C463.252,73.0665 458.423,74.2262 457.607,75.7776C411.682,130.066 369.326,186.832 322.771,241.61L322,243L320.548,244C303.575,268.323 285.294,289.901 266.646,313.719C251.227,331.952 236.158,351.85 223.616,371.762C213.701,389.677 205.446,410.012 199.566,430.873C191.874,445.981 194.848,472.411 188.579,487.835C187.561,505.615 186.54,529.365 188.551,546.054C187.602,567.115 195.842,579.731 196.548,598.018C200.126,613.879 206.067,628.392 211.588,641.187C217.803,650.367 222.164,662.537 228.654,670.291C233.902,676.372 237.204,685.732 242.718,690.353C244.946,691.945 249.107,695.575 251.186,699.18C253.264,702.786 253.374,705.594 246.833,706.58C239.722,712.495 225.733,712.799 219.724,718.642C210.744,722.689 202.406,728.754 198.596,736.797C135.574,820.427 72.4624,903.686 9.74861,987.624L9,989L7.548,990C7.86883,994.78 6.82422,999.89 5.61059,1001.77C5.61059,1003.52 5.548,1007.78 5.548,1008L4.548,1009C4.548,1013.46 4.548,1019.91 4.548,1023C5.58881,1023.16 5.68954,1024.81 5.6044,1026.48C5.51927,1028.15 5.41379,1030.19 5.71352,1030.35C6.69296,1034.87 7.36209,1041.5 8.70026,1044.34C9.54541,1044.21 10.0146,1044.75 10.345,1045.5C10.6754,1046.26 10.874,1046.54 10.7072,1046.66C21.707,1065.16 43.8194,1073.87 59.7395,1086.37C79.238,1097.38 97.9074,1109.83 116.776,1120.39C266.875,1208.81 412.676,1300.87 607.775,1346.39C608.017,1346.87 609.11,1347.25 610.025,1347.42C610.939,1347.59 612.152,1347.53 612.252,1347.38C623.887,1348.77 637.425,1349.15 647.972,1350.45ZM693.91,1235.56C686.738,1237.48 673.79,1235.99 664.044,1236.55C639.639,1230.19 608.581,1228.93 587.106,1218.56C584.028,1218.56 578.771,1218.57 577.13,1218.57C570.87,1213.84 559.548,1212.92 553.114,1209.56L551,1210L550,1208L548,1208L548,1207C545.932,1207 541.724,1206.58 541.161,1206.58C536.26,1200.83 523.545,1201.74 519.231,1196.61L518,1197L518,1196L516.452,1196C482.869,1183.31 450.615,1169.49 420.121,1152.56C418.375,1152.56 414.306,1152.56 414.088,1152.56C411.463,1151.41 408.975,1148.51 408.374,1146.75C406.937,1146.75 403.049,1147.42 403.16,1147.42C402.527,1146.69 400.966,1145.48 399.715,1144.98C398.465,1144.49 397.685,1144.59 398.32,1143.32L397,1143L397,1142L396,1142L396,1141C394.564,1141 391.018,1141.43 391.129,1141.43C390.149,1140.7 388.462,1139.37 387.077,1138.69C385.693,1138 384.855,1137.78 385.373,1136.25L384,1136L384,1135L381,1135L381,1134L379.452,1135C379.053,1134.36 377.502,1133.59 376.472,1133.2C375.442,1132.81 374.757,1133.16 375.276,1132.36L374,1132L374,1131L373,1131L373,1130L372,1130L372,1129L368.452,1129C366.3,1128.07 361.988,1127.24 362.417,1125.17L361,1125L360,1123L356.452,1123C339.86,1113.1 320.825,1104.3 306.155,1093.58L304.452,1094C301.821,1091.83 294.791,1092.23 295.431,1088.13L293.452,1088C277.24,1080.07 262.282,1069.58 247.22,1061.6C234.86,1054.19 222.422,1046.13 210.264,1039.63C203.711,1030.85 211.672,1027.02 222.856,1023.52C234.04,1020.02 248.387,1017.63 254.205,1013.4C275.295,1008.34 294.379,1000.77 313.106,994.44C332.589,991.795 347.508,983.863 365.104,980.44C379.723,976.293 393.765,970.652 410.171,969.418C417.811,960.989 439.051,965.186 446.196,957.407C461.53,958.699 467.219,949.49 481.057,950.448C490.266,947.311 500.22,943.792 512.045,944.45C596.461,922.365 743.546,901.324 807.718,960.353C816.438,965.337 823.963,972.423 829.645,979.279C834.21,986.722 841.452,992.508 844.591,1000.19C849.364,1004.7 850.958,1013.93 854.655,1018.29C858.114,1022.4 856.255,1033.54 860.732,1035.36C877.823,1123.2 842.769,1182.03 788.776,1209.61C764.036,1226.34 729.168,1230.51 693.91,1235.56ZM973.773,984.609L972.452,986C972.59,984.944 968.622,984.153 968.446,981.929L967,982L967,981L966,980L965,980L965,979L964.452,979C964.807,967.657 956.344,963.908 956.452,954.01L955,954L955,953L954,953L954,952L952.452,952C949.281,939.777 940.631,931.769 935.388,922.768C929.63,914.485 923.096,905.841 917.347,898.71C868.172,847.227 803.867,812.727 710.024,802.549C705.565,802.549 699.087,802.548 695.993,802.548C543.676,807.185 421.983,841.482 296.939,875.552L295,877L293.548,878C271.815,884.097 252.266,891.938 230.167,896.58C229.288,892.058 234.45,884.929 237.305,882.334C262.184,859.217 268.009,817.429 311.026,812.451L313.452,811C331.212,802.941 350.696,796.71 369.14,790.43C526.097,741.92 676.437,685.378 872.037,674.451C891.41,672.377 901.175,681.787 920.942,680.448C934.584,685.123 949.216,690.606 963.838,695.422C978.737,702.217 992.834,711.392 1004.69,722.332C1018.2,734.889 1029.95,750.644 1037.58,770.17C1050.27,792.035 1051.01,823.172 1049.55,857.981C1042.91,885.338 1033.95,909.995 1017.66,927.701C1003.81,946.307 989.322,966.506 973.773,984.609ZM401.614,655.765C401.764,656.736 400.581,656.67 398.628,656.628C396.676,656.585 394.396,656.353 393.055,656.551C332.454,631.027 296.741,585.596 306.45,492.047C307.108,487.105 306.72,478.671 311.282,476.353C312.625,470.687 311.366,459.552 315.352,455.283C317.223,448.056 321.283,440.372 324.409,433.192C329.443,426.715 334.85,418.599 342.287,413.349C348.606,405.764 356.201,397.423 366.226,392.392C374.526,386.448 388.97,384.658 398.137,378.431C412.567,378.957 418.22,368.669 437.057,372.448C448.087,366.981 460.508,367.529 478.008,366.452C496.187,366.927 518.836,364.736 531.905,371.442C555.364,369.676 568.758,379.832 589.942,381.448C611.622,385.501 630.909,393.581 652.879,398.435C675.222,406.191 697.639,415.442 720.837,423.422C745.796,434.459 771.489,444.716 795.797,456.404C823.495,471.172 850.871,483.991 876.77,499.389C905.754,516.4 934.895,533.307 960.794,553.403C966.674,554.565 972.456,558.126 974.719,562.08C976.983,566.034 975.928,569.526 966.993,571.548C950.411,568.355 935.847,562.35 917.994,561.548C899.938,562.859 888.426,556.736 874.009,555.548C704.068,562.793 562.567,607.169 422.751,646.623C422.133,654.757 405.592,649.778 401.614,655.765ZM1098.64,499.733C1099.04,500.595 1098.2,500.606 1096.62,500.614C1095.04,500.621 1093.2,500.454 1092.11,500.562C1071.41,484.77 1048.67,468.747 1027.16,452.577L1024.45,453C955.809,404.792 879.668,363.95 799.102,326.56C796.702,326.56 792.036,326.564 791.118,326.564C775.579,316.619 754.08,312.104 739.202,302.596C670.257,280.72 607.702,258.42 527.142,251.571C522.003,247.959 510.253,248.294 500.033,248.549C492.86,247.317 478.148,251.738 475.422,244.839C475.23,238.34 482.403,236.621 483.443,230.092C488.867,226.765 491.68,218.74 498.269,215.363C502.659,207.9 508.556,199.533 514.343,192.294C520.54,186.638 526.12,178.041 531.368,170.263C536.397,164.813 542.596,158.257 548.323,152.316C554.138,146.62 563.425,142.258 571.238,137.384C580.709,131.59 595.046,128.853 608.05,125.449C628.516,126.247 641.168,117.398 664.007,119.452C692.106,116.076 708.71,125.861 734.941,125.448C758.308,132.18 784.486,137.615 808.852,144.427C833.988,155.288 863.559,161.665 887.81,173.41C915.684,185.532 944.232,196.978 971.801,209.406C999.227,224.532 1029.57,238.879 1056.77,255.39C1087.93,272.643 1117.3,289.555 1145.75,308.375C1167.32,323.329 1189.82,334.792 1207.66,352.292C1207.07,355.52 1205.85,360.651 1202.71,362.656C1200.89,366.438 1194.82,369.268 1193.56,374.886C1191.12,377.333 1188.67,382.516 1185.66,385.697C1156.08,424.255 1128.2,462.333 1098.64,499.733Z" fill-rule="evenodd" fill="currentColor"/>
<path d="M713.957,1349.55C743.286,1353.73 758.995,1344.42 781.074,1342.45C798.796,1338.04 814.887,1331.12 830.191,1325.41C840.981,1318.78 853.094,1312.51 863.248,1306.38C954.028,1236.88 1005.92,1129.79 1081.02,1042.45C969.17,1155.58 928.089,1338.7 713.957,1349.55Z" fill-rule="evenodd" fill="currentColor"/>
<path d="M612,1348L612,1347L612,1348Z" fill-rule="evenodd" fill="currentColor"/>
<path d="M608,1347L608,1346L608,1347Z" fill-rule="evenodd" fill="currentColor"/>
<path d="M603.951,1346.45L608.452,1346C413.353,1300.47 267.325,1208.03 117.226,1119.61C98.3576,1109.05 79.7413,1096.63 60.2428,1085.62C44.3227,1073.12 21.9797,1065.05 10.9799,1046.55C20.2001,1066.16 41.594,1074.75 56.7283,1087.36C75.5778,1098.69 94.5912,1110.46 112.758,1121.38C128.82,1132.48 147.418,1141.65 162.754,1152.38C298.267,1228.51 430.166,1308.59 603.951,1346.45Z" fill-rule="evenodd" fill="currentColor"/>
<path d="M663.955,1237.45C673.701,1236.89 686.92,1238.37 694.092,1236.44C729.349,1231.4 764.279,1227.19 789.02,1210.45C739.04,1238.37 649.354,1241.75 586.979,1218.55C608.455,1228.92 639.55,1231.08 663.955,1237.45Z" fill-rule="evenodd" fill="currentColor"/>
<path d="M576.84,1219.42C578.481,1219.42 583.928,1219.45 587.006,1219.45C572.985,1219.09 566.685,1208.99 552.889,1209.56C559.323,1212.92 570.58,1214.7 576.84,1219.42Z" fill-rule="evenodd" fill="currentColor"/>
<path d="M551,1210L553.452,1210C553.579,1209.15 552.614,1208.16 551.86,1207.83C551.106,1207.5 549.84,1207.47 549.729,1207.64L551,1210Z" fill-rule="evenodd" fill="currentColor"/>
<path d="M788.972,1209.55C842.965,1181.97 878.525,1122.72 861.435,1034.88C856.958,1033.05 858.805,1021.82 855.346,1017.71C851.648,1013.35 850.109,1004.21 845.336,999.697C842.197,992.013 834.945,986.198 830.38,978.755C824.698,971.899 816.623,964.542 807.903,959.558C812.521,967.966 823.387,971.588 827.606,979.222C832.045,986.112 838.411,992.322 842.621,998.247C844.606,1005.54 850.026,1010.61 851.565,1017.12C855.493,1020.42 855.611,1029.08 856.557,1034.09C859.158,1037.68 861.806,1042.83 861.549,1047.98C871.835,1136.59 835.885,1178.14 788.972,1209.55Z" fill-rule="evenodd" fill="currentColor"/>
<path d="M548,1208L550,1208L548,1207L548,1208Z" fill-rule="evenodd" fill="currentColor"/>
<path d="M540.771,1207.39C541.335,1207.39 545.99,1207.45 548.058,1207.45C537.803,1204.68 529.446,1197.84 518.86,1196.57C523.174,1201.7 535.871,1201.64 540.771,1207.39Z" fill-rule="evenodd" fill="currentColor"/>
<path d="M518,1197L519,1197L518,1196L518,1197Z" fill-rule="evenodd" fill="currentColor"/>
<path d="M515.916,1196.44L518.452,1196C484.14,1183.32 452.547,1166.98 419.98,1152.55C450.474,1169.48 482.333,1183.76 515.916,1196.44Z" fill-rule="evenodd" fill="currentColor"/>
<path d="M413.904,1153.44C414.122,1153.44 418.307,1153.45 420.052,1153.45C415.34,1152.32 410.935,1148.04 407.876,1146.57C408.478,1148.33 411.279,1152.3 413.904,1153.44Z" fill-rule="evenodd" fill="currentColor"/>
<path d="M402.773,1147.39C404.21,1147.39 408.249,1146.57 408.138,1146.57C405.714,1144.53 399.901,1143.65 397.895,1142.56C397.26,1143.83 398.131,1145.33 399.381,1145.82C400.632,1146.32 402.14,1146.66 402.773,1147.39Z" fill-rule="evenodd" fill="currentColor"/>
<path d="M397,1143L398,1143L397,1142L397,1143Z" fill-rule="evenodd" fill="currentColor"/>
<path d="M396,1142L397,1142L396,1141L396,1142Z" fill-rule="evenodd" fill="currentColor"/>
<path d="M390.842,1141.42C392.278,1141.42 396.226,1140.56 396.115,1140.56C392.932,1138.59 386.574,1137.74 384.946,1135.55C384.428,1137.07 385.291,1138.81 386.675,1139.5C388.06,1140.18 389.862,1140.69 390.842,1141.42Z" fill-rule="evenodd" fill="currentColor"/>
<path d="M384,1136L385,1136L384,1135L384,1136Z" fill-rule="evenodd" fill="currentColor"/>
<path d="M378.718,1135.35L381.452,1134C380.308,1132.74 375.934,1131.37 374.789,1131.6C374.271,1132.4 375.121,1133.66 376.151,1134.05C377.181,1134.44 378.32,1134.72 378.718,1135.35Z" fill-rule="evenodd" fill="currentColor"/>
<path d="M381,1135L384,1135L381,1134L381,1135Z" fill-rule="evenodd" fill="currentColor"/>
<path d="M374,1132L375,1132L374,1131L374,1132Z" fill-rule="evenodd" fill="currentColor"/>
<path d="M373,1131L374,1131L373,1130L373,1131Z" fill-rule="evenodd" fill="currentColor"/>
<path d="M372,1130L373,1130L372,1129L372,1130Z" fill-rule="evenodd" fill="currentColor"/>
<path d="M367.905,1129.44L372.452,1129C370.028,1126.97 363.881,1125.65 361.876,1124.57C361.446,1126.64 365.753,1128.52 367.905,1129.44Z" fill-rule="evenodd" fill="currentColor"/>
<path d="M361,1125L362,1125L360,1123L361,1125Z" fill-rule="evenodd" fill="currentColor"/>
<path d="M355.871,1123.43L360.452,1123C342.427,1113.19 323.888,1102.37 305.963,1093.55C320.633,1104.28 339.278,1113.54 355.871,1123.43Z" fill-rule="evenodd" fill="currentColor"/>
<path d="M303.827,1094.42L306.452,1094C304.537,1090.42 296.131,1090.56 294.965,1087.55C294.325,1091.65 301.197,1092.24 303.827,1094.42Z" fill-rule="evenodd" fill="currentColor"/>
<path d="M292.893,1088.44L295.452,1088C281.136,1078.85 264.891,1070.31 251.226,1061.61C238.168,1055.23 227.13,1046.07 214.258,1040.63C208.978,1030.45 217.559,1027.03 228.991,1023.96C240.422,1020.9 254.702,1018.92 260.258,1013.37C280.594,1007.55 301.54,1001.92 320.117,995.436C338.846,992.037 353.377,983.744 372.094,981.442C386.109,977.028 399.787,971.396 415.126,969.434C425.581,964.156 441.887,963.825 451.089,958.443C466.57,960.898 469.897,950.179 484.022,952.451C569.665,929.759 738.773,902.292 808.01,960.452C743.838,901.423 596.371,921.465 511.954,943.55C500.13,942.893 490.15,946.414 480.94,949.552C467.102,948.594 461.193,957.862 445.859,956.57C438.714,964.349 417.405,960.184 409.765,968.614C393.36,969.847 379.513,975.414 364.894,979.561C347.299,982.984 332.382,990.915 312.899,993.559C294.172,999.893 274.914,1007.52 253.824,1012.58C248.006,1016.81 233.771,1019.16 222.587,1022.66C211.403,1026.15 203.117,1031.53 209.671,1040.31C221.828,1046.81 234.416,1054.98 246.775,1062.39C261.838,1070.37 276.68,1080.51 292.893,1088.44Z" fill-rule="evenodd" fill="currentColor"/>
<path d="M10,1047L11.452,1047C11.817,1045.92 11.1729,1044.78 10.5887,1044.28C10.0044,1043.78 8.65254,1043.66 8.62456,1043.75L10,1047Z" fill-rule="evenodd" fill="currentColor"/>
<path d="M7.77269,1044.39L9.452,1044C8.11384,1041.16 6.95971,1034.07 5.98026,1029.55C5.46027,1035.22 6.00892,1042.34 7.77269,1044.39Z" fill-rule="evenodd" fill="currentColor"/>
<path d="M1081,1041.55C1112.07,999.582 1148.83,963.145 1161.01,903.452C1146.13,960.453 1111.54,999.048 1081,1041.55Z" fill-rule="evenodd" fill="currentColor"/>
<path d="M5,1024L5,1023L5,1024Z" fill-rule="evenodd" fill="currentColor"/>
<path d="M5,1009L6,1008L5,1009Z" fill-rule="evenodd" fill="currentColor"/>
<path d="M5.54908,1002.03C6.76271,1000.15 8.74696,994.629 8.42613,989.849C5.93255,991.815 5.53188,998.92 5.54908,1002.03Z" fill-rule="evenodd" fill="currentColor"/>
<path d="M8,990L9,989L8,990Z" fill-rule="evenodd" fill="currentColor"/>
<path d="M9,989L10,988L9,989Z" fill-rule="evenodd" fill="currentColor"/>
<path d="M9.99177,987.548C72.7056,903.61 136.347,820.891 199.369,737.261C203.179,729.218 211.255,723.433 220.235,719.386C226.244,713.543 240.095,713.317 247.206,707.402C253.748,706.416 254.047,702.334 251.969,698.729C249.89,695.123 245.5,691.231 243.272,689.639C237.758,685.018 234.591,675.786 229.343,669.706C222.853,661.952 218.595,649.936 212.38,640.756C206.859,627.961 201.019,613.763 197.441,597.902C196.735,579.615 188.502,567.082 189.452,546.02C187.44,529.332 188.433,505.806 189.451,488.027C195.72,472.602 192.714,446.306 200.406,431.199C206.286,410.338 214.479,390.137 224.394,372.222C236.936,352.31 251.928,332.523 267.347,314.289C285.996,290.472 304.044,268.775 321.017,244.452C302.545,267.277 283.834,288.449 265.643,312.723C249.985,330.414 235.658,348.257 222.614,369.765C211.939,386.584 203.773,406.694 198.562,427.888C191.235,443.025 191.601,466.547 186.567,482.87C186.567,502.645 186.548,523.346 186.548,542C182.09,566.233 193.991,574.87 192.549,594.966C198.904,608.05 201.099,626.447 208.619,637.243C211.518,650.075 220.699,657.461 224.579,668.165C229.485,674.588 233.129,683.773 238.699,688.337C240.485,690.337 244.517,693.933 246.753,697.531C248.989,701.129 249.539,703.981 243.809,705.591C236.799,711.268 222.883,711.366 217.684,717.677C209.436,722.116 200.789,727.438 196.611,734.77C134.295,819.106 70.0324,900.937 9.99177,987.548Z" fill-rule="evenodd" fill="currentColor"/>
<path d="M971.563,985.886L974.452,985C990.001,966.897 1004.51,946.883 1018.36,928.277C1034.65,910.571 1043.8,885.462 1050.44,858.105C1051.9,823.296 1051.08,791.644 1038.39,769.78C1030.76,750.254 1018.82,734.226 1005.31,721.669C993.448,710.729 979.066,701.375 964.168,694.58C949.545,689.764 934.702,684.227 921.061,679.552C901.293,680.891 891.337,671.476 871.963,673.549C676.363,684.477 525.945,741.039 368.989,789.548C403.82,780.669 436.903,769.747 469.138,759.43C498.644,749.94 531.626,743.887 561.159,734.423C584.599,723.867 615.262,720.554 640.136,711.431C663.325,705.45 688.601,701.073 711.061,695.448C736.043,694.946 752.447,685.171 777.103,685.44C792.048,677.25 822.702,684.143 841.039,680.45C861.917,681.028 885.773,679.301 903.967,681.451C921.886,681.961 934.878,688.154 947.893,692.439C962.451,694.626 971.842,702.75 981.794,708.402C992.297,712.955 999.862,721.213 1006.67,728.309C1012.53,735.14 1020.89,740.391 1024.6,748.201C1028.8,754.305 1032.04,762.704 1035.61,768.23C1035.73,777.054 1042.9,779.921 1042.55,787.98C1040.59,797.853 1048.24,799.608 1047.55,806.957C1048.98,814.811 1048.58,825.909 1048.55,833.998C1048.68,843.075 1046.62,851.415 1047.55,860.053C1044.29,864.702 1042.52,872.226 1041.56,877.92C1037.84,884.852 1035.96,894.707 1032.6,900.789C1030.5,907.973 1023.97,912.24 1022.56,918.892C1002.93,938.574 991.97,965.463 967.692,981.67C967.867,983.894 971.7,984.83 971.563,985.886Z" fill-rule="evenodd" fill="currentColor"/>
<path d="M967,982L968,982L967,981L967,982Z" fill-rule="evenodd" fill="currentColor"/>
<path d="M965,980L966,980L965,979L965,980Z" fill-rule="evenodd" fill="currentColor"/>
<path d="M963.549,978.972L965.452,979C966.001,967.122 957.925,961.732 955.974,953.549C955.865,963.447 963.904,967.629 963.549,978.972Z" fill-rule="evenodd" fill="currentColor"/>
<path d="M955,954L956,954L955,953L955,954Z" fill-rule="evenodd" fill="currentColor"/>
<path d="M954,953L955,953L954,952L954,953Z" fill-rule="evenodd" fill="currentColor"/>
<path d="M951.599,952.208L954.452,952C909.663,866.266 831.46,814.894 709.998,802.548C803.841,812.726 867.492,847.823 916.667,899.306C922.416,906.437 928.868,914.97 934.626,923.253C939.869,932.254 948.428,939.985 951.599,952.208Z" fill-rule="evenodd" fill="currentColor"/>
<path d="M1160.98,902.548C1172.65,865.21 1172.33,796.776 1160.99,760.548C1170.82,801.65 1170.82,861.448 1160.98,902.548Z" fill-rule="evenodd" fill="currentColor"/>
<path d="M229.594,897.199C251.694,892.558 272.318,884.546 294.051,878.449C278.472,879.277 268.543,886.037 254.825,887.583C251.883,890.677 245.155,892.539 240.163,891.962C235.171,891.386 232.142,889.237 237.053,882.449C234.198,885.044 228.716,892.677 229.594,897.199Z" fill-rule="evenodd" fill="currentColor"/>
<path d="M236.976,881.549C264.273,860.85 269.14,818.58 311.007,812.452C267.99,817.43 261.855,858.432 236.976,881.549Z" fill-rule="evenodd" fill="currentColor"/>
<path d="M294,878L295,877L294,878Z" fill-rule="evenodd" fill="currentColor"/>
<path d="M295,877L296,876L295,877Z" fill-rule="evenodd" fill="currentColor"/>
<path d="M296.998,875.548C422.042,841.478 543.689,808.089 696.006,803.452C544.849,804.182 420.302,840.875 296.998,875.548Z" fill-rule="evenodd" fill="currentColor"/>
<path d="M311,812L313,811L311,812Z" fill-rule="evenodd" fill="currentColor"/>
<path d="M312.962,810.55C333.277,805.046 351.837,797.993 369.02,790.452C350.576,796.732 330.722,802.491 312.962,810.55Z" fill-rule="evenodd" fill="currentColor"/>
<path d="M1160,761L1161,761L1160,760L1160,761Z" fill-rule="evenodd" fill="currentColor"/>
<path d="M1159,760L1160.45,760C1160.82,758.917 1160.17,757.782 1159.59,757.282C1159,756.782 1157.65,756.664 1157.62,756.748L1159,760Z" fill-rule="evenodd" fill="currentColor"/>
<path d="M1156.57,757.128L1158.45,757C1155.64,733.992 1145.73,716.517 1136.97,700.549C1143.77,718.137 1153.3,734.915 1156.57,757.128Z" fill-rule="evenodd" fill="currentColor"/>
<path d="M1136,701L1137,701L1135,699L1136,701Z" fill-rule="evenodd" fill="currentColor"/>
<path d="M1133.65,699.291L1135.45,699C1133.11,678.101 1104.26,666.301 1111.33,648.31C1103.34,649.538 1102.09,652.928 1104.21,656.736C1106.32,660.544 1111.12,664.766 1113.67,667.305C1120.08,677.175 1128.5,687.022 1133.65,699.291Z" fill-rule="evenodd" fill="currentColor"/>
<path d="M392.941,657.448C394.282,657.25 396.656,657.489 398.609,657.531C400.561,657.574 402.596,656.896 402.446,655.925C406.424,649.937 422.819,655.251 423.437,647.117C391.86,662.167 365.59,640.283 348.291,625.654C329.386,609.9 316.528,587.282 310.441,559.903C306.938,531.697 305.246,493.156 313.427,470.15C318.92,448.484 326.566,428.643 340.316,416.324C350.364,403.572 365.295,395.218 379.184,387.413C395.197,382.643 410.621,376.715 428.026,374.451C447.114,374.774 459.135,367.247 477.979,368.451C496.515,369.018 518.497,366.782 529.836,373.421C703.527,403.163 835.624,474.353 961.021,553.452C935.122,533.356 906.214,515.622 877.23,498.611C851.331,483.212 823.904,470.366 796.206,455.598C771.898,443.909 746.126,433.618 721.167,422.58C697.969,414.6 675.468,405.321 653.125,397.566C631.155,392.711 611.74,384.604 590.059,380.552C568.876,378.936 555.544,368.79 532.085,370.556C519.016,363.85 496.171,366.023 477.992,365.548C460.492,366.625 447.969,366.085 436.938,371.552C418.102,367.772 412.315,378.089 397.885,377.563C388.718,383.79 374.058,385.674 365.758,391.618C355.734,396.65 347.991,405.104 341.673,412.688C334.236,417.938 328.666,426.259 323.633,432.736C320.507,439.916 316.438,447.645 314.566,454.872C310.58,459.141 311.913,470.195 310.57,475.861C306.008,478.179 306.21,486.998 305.552,491.94C295.844,585.49 332.34,631.924 392.941,657.448Z" fill-rule="evenodd" fill="currentColor"/>
<path d="M1110.89,647.561C1121.31,645.29 1132.61,643.26 1139.24,638.382C1149.49,633.576 1157.19,624.949 1162.38,616.238C1224.29,534.822 1285.01,452.772 1345,369.452C1282.49,453.169 1220.14,535.095 1157.63,617.739C1153.77,626.072 1145.47,631.972 1136.75,636.622C1130.99,642.027 1117.94,642.262 1110.89,647.561Z" fill-rule="evenodd" fill="currentColor"/>
<path d="M422.998,646.548C562.814,607.094 704.05,563.697 873.991,556.452C888.408,557.64 899.951,563.763 918.006,562.452C935.859,563.254 950.425,569.259 967.007,572.452C975.943,570.43 977.768,565.585 975.504,561.631C973.24,557.677 966.829,553.713 960.949,552.551C967.284,555.444 971.097,560.347 970.87,563.616C970.642,566.885 966.542,568.533 955.116,566.563C942.231,561.693 926.705,558.534 910.064,558.553C896.385,554.476 878.195,553.957 860.98,554.548C693.178,563.395 559.81,606.711 422.998,646.548Z" fill-rule="evenodd" fill="currentColor"/>
<path d="M1091.86,501.431C1092.95,501.323 1095.05,501.525 1096.62,501.518C1098.2,501.51 1099.81,500.66 1099.4,499.798C1128.97,462.398 1156.77,424.84 1186.35,386.283C1189.36,383.102 1191.9,377.738 1194.35,375.291C1195.61,369.672 1201.57,367.015 1203.39,363.233C1206.53,361.228 1207.85,355.322 1208.44,352.094C1190.61,334.594 1167.83,322.581 1146.25,307.627C1117.81,288.807 1088.39,271.861 1057.22,254.608C1030.02,238.098 999.631,223.723 972.205,208.597C944.637,196.17 916.062,184.71 888.187,172.589C863.936,160.843 834.29,154.436 809.154,143.575C784.788,136.762 758.427,131.284 735.061,124.552C708.829,124.965 692.093,115.172 663.993,118.548C641.155,116.494 628.418,125.349 607.952,124.551C594.948,127.954 580.234,130.821 570.763,136.615C562.95,141.489 553.496,145.984 547.681,151.679C541.954,157.621 535.688,164.254 530.659,169.704C525.411,177.482 519.88,186.022 513.683,191.678C507.895,198.916 502.032,207.261 497.642,214.724C491.053,218.101 488.125,226.334 482.7,229.662C481.661,236.19 474.356,238.514 474.548,245.014C477.273,251.913 492.794,248.219 499.967,249.451C510.188,249.196 521.691,248.807 526.831,252.419C607.391,259.268 670.062,281.577 739.007,303.452C700.717,289.998 662.395,274.886 621.111,265.562C584.019,254.926 539.747,250.414 497.031,246.549C490.119,246.237 480.003,248.208 478.421,243.836C499.523,214.684 520.726,187.062 544.348,159.289C566.636,129.833 614.209,125.26 663.008,123.452C710.279,123.448 749.409,130.491 786.88,141.436C820.585,150.022 850.923,160.867 880.828,174.418C906.379,183.526 931.716,194.034 954.807,204.409C973.476,213.904 992.384,223.775 1010.82,232.415C1027.32,238.717 1039.93,249.584 1054.8,256.407C1067.33,262.978 1079.79,270.375 1090.76,277.385C1101.57,283.655 1113.54,289.639 1122.75,296.373C1133.25,302.608 1143.83,309.714 1153.76,315.384C1162.32,321.539 1172.42,327.118 1180.74,332.366C1187.4,338.725 1196.74,343.379 1202.67,349.307C1210.46,360.422 1193.01,366.76 1190.57,374.863C1185.01,384.023 1177.44,391.974 1171.64,399.733C1166.88,406.984 1161.15,414.429 1156.64,420.733C1152.49,425.873 1148.83,432.734 1144.7,436.661C1140.52,439.709 1138.18,446.191 1134.7,448.666C1132.94,452.409 1130.86,457.526 1127.77,458.611C1124.45,462.857 1119.95,467.816 1117.61,471.778C1115.78,477.171 1110.93,481.062 1108.64,484.725C1104.44,487.4 1102.44,493.852 1099.67,496.687C1096.41,500.301 1091.91,499.926 1090.39,496.769C1069.12,482.37 1049.02,464.976 1026.97,452.549C1048.48,468.719 1071.16,485.639 1091.86,501.431Z" fill-rule="evenodd" fill="currentColor"/>
<path d="M1023.85,453.426L1027.45,453C957.39,404.934 881.219,361.346 798.992,326.548C879.558,363.938 955.207,405.219 1023.85,453.426Z" fill-rule="evenodd" fill="currentColor"/>
<path d="M1345,369L1346,368L1345,369Z" fill-rule="evenodd" fill="currentColor"/>
<path d="M1346,368L1347,367L1346,368Z" fill-rule="evenodd" fill="currentColor"/>
<path d="M1347,367L1348,366L1347,367Z" fill-rule="evenodd" fill="currentColor"/>
<path d="M1347.65,366.29C1349.15,362.983 1350.62,356.479 1350.18,352.585C1349.04,354.9 1347.47,361.3 1347.65,366.29Z" fill-rule="evenodd" fill="currentColor"/>
<path d="M790.862,327.43C791.78,327.43 796.686,327.444 799.086,327.444C779.227,319.137 759.144,309.433 738.949,302.551C753.827,312.06 775.323,317.486 790.862,327.43Z" fill-rule="evenodd" fill="currentColor"/>
<path d="M1348.55,326.976L1350.45,327C1351.89,306.12 1337.99,299.388 1330.35,288.712C1192.98,187.767 1042.58,99.2783 865.998,37.548C1041.54,100.316 1190.76,189.99 1327.71,291.349C1336.38,300.663 1349.06,307.361 1348.55,326.976Z" fill-rule="evenodd" fill="currentColor"/>
<path d="M321,244L322,243L321,244Z" fill-rule="evenodd" fill="currentColor"/>
<path d="M322,243L323,242L322,243Z" fill-rule="evenodd" fill="currentColor"/>
<path d="M322.994,241.548C369.549,186.769 412.086,130.74 458.011,76.4519C409.746,128.399 368.272,185.493 322.994,241.548Z" fill-rule="evenodd" fill="currentColor"/>
<path d="M457.906,76.442C458.722,74.8906 463.938,73.6553 464.343,70.2941C462.476,72.1934 457.238,73.4059 457.906,76.442Z" fill-rule="evenodd" fill="currentColor"/>
<path d="M463.989,69.5481C504.072,31.3064 557.579,7.35175 635.005,6.45197C555.799,5.57136 502.151,29.3848 463.989,69.5481Z" fill-rule="evenodd" fill="currentColor"/>
<path d="M856.909,38.4428C858.187,38.4428 863.334,38.4463 866.072,38.4463C838.436,29.0851 808.302,21.2231 778.98,13.5484C804.02,22.5059 832.789,28.5666 856.909,38.4428Z" fill-rule="evenodd" fill="currentColor"/>
<path d="M765.938,14.4477C768.67,14.4477 774.979,14.4426 779.091,14.4426C771.768,11.1185 757.111,12.7912 750.898,9.55958C752.661,12.6867 761.092,13.1032 765.938,14.4477Z" fill-rule="evenodd" fill="currentColor"/>
<path d="M750,10L751,10L750,9L750,10Z" fill-rule="evenodd" fill="currentColor"/>
<path d="M748,9L748,8L748,9Z" fill-rule="evenodd" fill="currentColor"/>
<path d="M725.864,8.43118C732.744,8.43118 741.476,8.44548 747.077,8.44548C737.291,4.8665 720.213,6.41032 708.856,5.57145C711.175,8.14238 722.064,6.04117 725.864,8.43118Z" fill-rule="evenodd" fill="currentColor"/>
<path d="M654,6L655,5L654,6Z" fill-rule="evenodd" fill="currentColor"/>
<path d="M690,6L691,6L690,5L690,6Z" fill-rule="evenodd" fill="currentColor"/>
</g>
<g id="layer1">
<path d="M620,1349.35C618.625,1349.12 613.45,1347.86 608.5,1346.54C603.55,1345.23 595.851,1343.89 591.391,1343.57C586.887,1343.24 580.218,1341.91 576.391,1340.57C572.601,1339.25 566.575,1337.65 563,1337.01C559.425,1336.38 555.541,1335.24 554.368,1334.48C553.196,1333.73 548.398,1332.44 543.707,1331.62C539.016,1330.8 533.356,1329.2 531.129,1328.07C528.902,1326.93 526.049,1325.99 524.79,1325.98C523.53,1325.96 519.8,1324.81 516.5,1323.4C513.2,1322 508.025,1320.27 505,1319.55C501.975,1318.84 497.137,1317.3 494.25,1316.13C491.363,1314.96 486.637,1313.04 483.75,1311.88C480.863,1310.71 476.475,1309.11 474,1308.31C471.525,1307.52 467.128,1305.77 464.228,1304.43C461.328,1303.1 458.403,1302 457.728,1302C457.053,1302 454.025,1300.71 451,1299.13C447.975,1297.55 443.925,1295.75 442,1295.13C440.075,1294.51 436.286,1292.87 433.581,1291.5C430.875,1290.12 427.95,1289 427.081,1289C426.211,1288.99 424.119,1288.15 422.431,1287.12C420.743,1286.09 418.268,1284.94 416.931,1284.55C414.769,1283.93 396.149,1275.71 379.5,1268.03C357.329,1257.79 283.157,1219.7 268.5,1211.02C264.1,1208.41 256.675,1204.23 252,1201.74C229.119,1189.51 212.543,1180.21 201,1173.15C199.075,1171.97 195.665,1170.12 193.422,1169.03C191.179,1167.95 188.254,1166.21 186.922,1165.16C185.59,1164.12 180.54,1161.07 175.701,1158.38C164.355,1152.09 158.363,1148.55 141.704,1138.3C138.842,1136.54 134.475,1133.94 132,1132.52C129.525,1131.1 125.475,1128.61 123,1126.99C114.957,1121.73 90.084,1106.5 83.8147,1103C82.3378,1102.18 78.0628,1099.43 74.3147,1096.9C70.5666,1094.36 65.7,1091.31 63.5,1090.11C61.3,1088.91 57.6225,1086.71 55.3277,1085.22C26.1791,1066.24 16.2307,1057.78 10.0214,1046.67C7.06601,1041.38 6.6711,1039.66 5.78508,1028.21C5.12406,1019.66 5.1499,1011.74 5.86494,1003.7C6.81041,993.086 7.24249,991.349 9.96095,987.245C11.6324,984.722 13,982.289 13,981.84C13,981.39 15.1375,978.284 17.75,974.938C20.3625,971.592 24.525,965.806 27,962.08C29.475,958.354 34.9884,950.849 39.2519,945.403C43.5155,939.956 53.3571,926.95 61.1222,916.5C68.8873,906.05 75.5498,897.275 75.9279,897C76.306,896.725 78.724,893.331 81.3013,889.458C83.8786,885.585 88.144,879.735 90.78,876.458C93.416,873.181 103.533,859.925 113.262,847C122.991,834.075 134.789,818.55 139.479,812.5C144.17,806.45 150.136,798.35 152.738,794.5C155.34,790.65 160.318,784.125 163.801,780C167.284,775.875 171.763,770.047 173.754,767.048C178.403,760.048 198.448,733.381 201.877,729.634C208.062,722.877 224.256,713.455 233.994,710.948C238.628,709.755 244.094,707.151 247.371,704.574C250.168,702.375 248.865,699.116 242.015,691.177C236.347,684.608 223.001,665.668 222.999,664.192C222.999,663.811 220.722,659.675 217.94,655C215.158,650.325 211.835,644.025 210.557,641C209.279,637.975 206.593,631.675 204.587,627C202.581,622.325 200.07,615.115 199.007,610.977C197.944,606.84 196.357,602.019 195.482,600.264C194.606,598.509 193.643,593.794 193.341,589.786C193.039,585.779 191.467,577.94 189.847,572.367L186.902,562.234L187.221,518.367C187.529,476.136 187.624,474.254 189.763,467.906C190.984,464.279 192.418,457.121 192.947,452C193.477,446.878 194.997,439.496 196.325,435.594C197.653,431.692 199.435,425.8 200.287,422.5C202.135,415.332 205.391,406.008 207.97,400.5C219.516,375.832 225.981,364.392 235.097,352.498C237.625,349.199 240.285,345.375 241.009,344C242.903,340.402 247.585,334.467 254.484,326.92C257.793,323.301 263.399,316.326 266.943,311.42C270.486,306.514 275.48,300.25 278.039,297.5C280.598,294.75 285.425,288.675 288.766,284C292.107,279.325 296.339,273.907 298.17,271.959C300.002,270.012 304.2,264.888 307.5,260.572C310.8,256.257 315.75,250.016 318.5,246.703C326.713,236.809 337.249,223.407 341.277,217.731C343.354,214.804 347.21,210.18 349.847,207.455C352.484,204.73 358.565,197.325 363.361,191C376.041,174.277 388.476,158.376 396.739,148.314C405.389,137.782 418.32,121.237 428.638,107.5C432.918,101.802 445.689,87.8992 458.325,75.1838C476.768,56.6231 482.389,51.6044 491.725,45.3608C497.898,41.2321 504.873,36.8591 507.225,35.6431C509.576,34.4271 512.4,32.8996 513.5,32.2487C517.529,29.8646 530.53,24 531.786,24C532.498,24 534.848,23.0981 537.008,21.9957C539.169,20.8934 543.539,19.365 546.719,18.5993C549.898,17.8336 554.568,16.2701 557.096,15.1249C559.624,13.9796 565.024,12.7465 569.096,12.3845C573.168,12.0226 579.425,10.5968 583,9.21615C589.432,6.73191 589.942,6.69743 632,5.90155C655.375,5.45922 690.25,5.47478 709.5,5.93612C742.032,6.71579 744.883,6.92865 749.938,8.95496C753.511,10.3873 759.217,11.448 766.574,12.0476C773.178,12.5859 780.997,13.9593 785.635,15.3957C789.961,16.7353 795.525,18.1469 798,18.5327C800.475,18.9186 805.2,20.2412 808.5,21.4718C811.8,22.7025 816.724,24.0402 819.441,24.4446C822.159,24.849 826.465,26.0007 829.01,27.004C831.555,28.0073 836.532,29.3779 840.069,30.0498C843.606,30.7217 848.75,32.2705 851.5,33.4915C854.25,34.7125 858.279,36.039 860.453,36.4393C862.628,36.8395 866.03,37.9949 868.013,39.0069C869.997,40.0188 874.463,41.5834 877.937,42.4838C881.412,43.3841 885.212,44.7481 886.382,45.5148C887.552,46.2815 891.208,47.5729 894.505,48.3846C900.367,49.8274 907.945,52.6459 919,57.494C922.025,58.8206 925.625,60.1975 927,60.5536C928.375,60.9098 935.4,63.8559 942.61,67.1006C949.821,70.3453 956.346,73.0054 957.11,73.012C957.875,73.0187 960.341,74.0769 962.591,75.3637C964.841,76.6505 967.991,78.0198 969.591,78.4065C971.191,78.7933 977.148,81.3548 982.83,84.0988C988.511,86.8428 995.486,89.9624 998.33,91.0313C1006.24,94.005 1077.86,130.185 1101.34,143.066C1139.1,163.789 1152.11,171.174 1169.02,181.5C1171.73,183.15 1177.21,186.491 1181.22,188.923C1188.71,193.474 1201.16,201.421 1208.87,206.577C1211.28,208.185 1214.65,210.358 1216.37,211.406C1224.43,216.317 1244.71,229.666 1249,232.872C1250.38,233.901 1254.65,236.823 1258.5,239.365C1262.35,241.907 1266.62,244.848 1268,245.901C1269.38,246.953 1273.65,249.898 1277.5,252.444C1281.35,254.991 1290.12,261.114 1297,266.051C1303.88,270.988 1312.88,277.346 1317,280.179C1327.77,287.579 1341.33,301.139 1345.78,308.964L1349.5,315.5L1349.5,339L1349.5,362.5L1344.51,371.338C1341.77,376.199 1337.7,382.314 1335.47,384.925C1333.24,387.537 1329.87,392.11 1327.98,395.087C1326.09,398.064 1321.71,403.841 1318.25,407.924C1314.79,412.007 1310.32,417.857 1308.32,420.924C1306.31,423.991 1301.66,430.108 1297.98,434.517C1294.3,438.926 1290.58,443.876 1289.71,445.517C1288.85,447.158 1285.74,451.524 1282.82,455.22C1279.89,458.915 1275.92,464.23 1274,467.029C1272.08,469.829 1267.92,475.355 1264.77,479.31C1258.74,486.871 1248.89,500.004 1230.11,525.5C1226.87,529.9 1223.13,534.626 1221.8,536.002C1220.47,537.379 1217.78,541.01 1215.82,544.072C1213.86,547.134 1210.91,551.183 1209.26,553.07C1207.61,554.956 1204.22,559.65 1201.72,563.5C1199.23,567.35 1194.67,573.39 1191.6,576.921C1188.52,580.453 1183.93,586.406 1181.4,590.15C1178.86,593.894 1175.12,598.88 1173.08,601.229C1171.04,603.578 1166.16,610.048 1162.24,615.606C1158.32,621.165 1152.82,627.777 1150.01,630.3C1144,635.704 1128.8,643.454 1121,645.09C1114.57,646.439 1111.21,648.003 1108.63,650.857C1105.96,653.804 1107.02,656.644 1113.8,664.756C1116.99,668.578 1121.11,674.135 1122.94,677.103C1124.78,680.071 1127.51,684.3 1129,686.5C1130.5,688.7 1132.69,692.525 1133.87,695C1135.05,697.475 1137.64,702.2 1139.63,705.5C1141.61,708.8 1143.92,713.525 1144.75,716C1145.59,718.475 1146.87,721.192 1147.6,722.037C1149.34,724.06 1154.69,739.537 1156.91,749C1157.88,753.125 1159.24,757.85 1159.94,759.5C1160.64,761.15 1161.64,765.425 1162.17,769C1163.44,777.528 1164.34,781.808 1166.95,791.698C1169.01,799.499 1169.1,801.629 1168.8,835.698C1168.49,870.251 1168.4,871.686 1166.23,876.826C1164.91,879.939 1163.57,886.036 1163,891.5C1162.47,896.642 1161.14,903.112 1160.05,905.879C1158.96,908.647 1157.38,913.865 1156.54,917.477C1155.7,921.088 1154.11,925.815 1153.01,927.981C1151.9,930.148 1151,932.846 1151,933.977C1151,936.468 1133.82,970.883 1129.78,976.5C1128.19,978.7 1125.05,983.425 1122.78,987C1120.52,990.575 1116.7,995.818 1114.3,998.651C1111.89,1001.48 1107.58,1006.98 1104.71,1010.86C1101.85,1014.74 1095.91,1022.77 1091.52,1028.71C1087.13,1034.64 1081.71,1041.76 1079.48,1044.52C1077.26,1047.28 1072.87,1053.36 1069.73,1058.02C1066.59,1062.69 1062.16,1068.53 1059.89,1071C1057.62,1073.47 1054.18,1077.97 1052.26,1081C1050.34,1084.03 1046.2,1089.42 1043.07,1093C1039.94,1096.58 1035.86,1101.75 1034.02,1104.5C1032.17,1107.25 1024.1,1118.19 1016.08,1128.82C1008.06,1139.45 999.341,1151.15 996.702,1154.82C994.063,1158.49 989.981,1163.75 987.632,1166.5C985.282,1169.25 981.303,1174.65 978.788,1178.5C976.273,1182.35 971.838,1188.2 968.932,1191.5C966.025,1194.8 962.039,1199.98 960.074,1203C958.108,1206.03 953.967,1211.66 950.871,1215.5C947.775,1219.35 943.537,1225.2 941.455,1228.5C939.372,1231.8 935.792,1236.75 933.499,1239.5C931.206,1242.25 927.199,1247.53 924.594,1251.23C916.763,1262.35 901.703,1277.29 886.802,1288.73C879.084,1294.65 872.034,1299.99 871.135,1300.59C866.233,1303.87 846.099,1315.51 838,1319.75C834.975,1321.33 831.6,1323.1 830.5,1323.69C827.751,1325.15 818.625,1328.86 812,1331.23C808.975,1332.3 804.7,1334 802.5,1335C800.3,1336 795.89,1337.29 792.7,1337.88C789.51,1338.47 784.812,1339.87 782.26,1341C779.708,1342.13 773.768,1343.45 769.06,1343.94C764.172,1344.45 758.14,1345.83 755,1347.16L749.5,1349.5L686,1349.63C651.075,1349.71 621.375,1349.58 620,1349.35ZM698.185,1233.58C704.611,1232.82 710.419,1231.86 711.092,1231.44C711.764,1231.03 717.77,1230.36 724.438,1229.97C733.196,1229.44 737.941,1228.66 741.531,1227.16C744.264,1226.01 749.644,1224.36 753.488,1223.49C757.331,1222.63 761.381,1221.33 762.488,1220.61C763.594,1219.89 766.3,1218.74 768.5,1218.04C770.7,1217.35 773.881,1215.99 775.569,1215.03C777.257,1214.07 780.941,1212.52 783.756,1211.58C786.57,1210.65 789.014,1209.54 789.186,1209.12C789.359,1208.71 792.875,1206.2 797,1203.54C810.542,1194.83 817.393,1188.81 828.873,1175.5C838.691,1164.12 843,1158.54 843,1157.22C843,1156.71 844.284,1154.53 845.852,1152.36C847.421,1150.2 849.281,1146.68 849.985,1144.54C850.69,1142.41 852.089,1139.27 853.093,1137.57C854.098,1135.86 855.44,1132 856.075,1128.98C856.709,1125.97 858.19,1121.47 859.364,1119C861.397,1114.72 861.514,1112.83 861.798,1079.9C862.058,1049.66 861.887,1044.75 860.439,1040.9C859.529,1038.48 857.937,1033.35 856.903,1029.5C855.868,1025.65 851.979,1016.5 848.261,1009.17C840.319,993.502 828.283,977.705 818.095,969.574C814.468,966.68 810.843,963.519 810.04,962.55C806.353,958.103 778.747,942.232 770.055,939.563C767.55,938.794 763.609,937.227 761.298,936.082C758.987,934.937 755.732,934 754.063,934C752.395,934 747.086,932.708 742.265,931.129C730.641,927.322 718.533,926.501 674.5,926.533C627.173,926.568 597.631,928.112 589,931.002C584.602,932.475 578.458,933.425 570,933.939C561.268,934.471 554.938,935.471 549,937.26C544.325,938.668 536.9,940.264 532.5,940.807C528.1,941.349 521.36,942.74 517.522,943.897C513.684,945.053 507.834,946.004 504.522,946.01C500.184,946.017 496.971,946.731 493.031,948.565C489.902,950.022 484.127,951.542 479.535,952.118C475.12,952.671 469.531,953.998 467.116,955.067C464.7,956.136 458.985,957.435 454.416,957.954C449.847,958.473 443.946,959.817 441.304,960.94C438.662,962.063 433.044,963.633 428.819,964.429C424.595,965.226 419.758,966.591 418.072,967.463C416.386,968.335 411.634,969.476 407.514,969.998C403.393,970.521 398.268,971.843 396.124,972.937C393.98,974.031 389.195,975.41 385.491,976.001C381.787,976.593 376.223,978.129 373.128,979.415C370.033,980.7 365.25,982.075 362.5,982.47C359.75,982.865 355.573,984.064 353.217,985.134C350.861,986.205 346.375,987.553 343.249,988.131C340.122,988.709 335.95,990.005 333.977,991.012C332.005,992.018 327.497,993.366 323.959,994.007C320.421,994.649 315.046,996.2 312.013,997.454C308.981,998.708 304.475,1000.04 302,1000.41C299.525,1000.78 295.7,1001.94 293.5,1002.99C291.3,1004.03 286.356,1005.6 282.512,1006.48C278.669,1007.36 274.603,1008.69 273.477,1009.42C272.351,1010.16 267.957,1011.48 263.712,1012.36C259.468,1013.24 254.984,1014.61 253.748,1015.41C252.512,1016.21 248.356,1017.59 244.512,1018.47C240.669,1019.36 236.516,1020.74 235.283,1021.55C234.05,1022.36 229.994,1023.73 226.27,1024.59C222.547,1025.45 216.485,1027.74 212.8,1029.68L206.1,1033.2L209.8,1037.21C211.835,1039.42 215.75,1042.31 218.5,1043.62C221.25,1044.94 226.425,1047.81 230,1050C233.575,1052.19 240.55,1056.27 245.5,1059.07C250.45,1061.87 256.975,1065.66 260,1067.48C263.025,1069.31 271.35,1074.05 278.5,1078.03C285.65,1082.01 292.84,1086.2 294.477,1087.36C296.115,1088.51 300.84,1091.19 304.977,1093.3C312.102,1096.94 317.055,1099.63 350.5,1118.01C358.2,1122.25 366.525,1126.66 369,1127.83C371.475,1129 374.175,1130.41 375,1130.98C375.825,1131.54 378.525,1132.9 381,1133.99C383.475,1135.08 386.175,1136.42 387,1136.97C389.739,1138.78 425.172,1155.59 448,1165.91C460.375,1171.51 472.75,1177.17 475.5,1178.5C482.812,1182.02 502.475,1190.14 510.614,1193.01C513.426,1194 517.209,1195.57 519.021,1196.51C520.832,1197.45 525.056,1199.01 528.407,1199.99C534.27,1201.7 539.191,1203.57 551,1208.58C554.025,1209.86 558.877,1211.38 561.783,1211.95C564.689,1212.52 568.739,1213.82 570.783,1214.84C572.827,1215.85 577.751,1217.24 581.724,1217.93C585.697,1218.61 591.224,1220.04 594.006,1221.09C596.788,1222.15 602.11,1223.45 605.833,1223.98C609.556,1224.5 614.711,1225.87 617.288,1227.01C620.629,1228.49 624.92,1229.23 632.237,1229.6C637.882,1229.88 644.525,1230.59 647,1231.16C663.18,1234.93 680.026,1235.72 698.185,1233.58ZM979.306,976.25C981.88,973.087 990.852,961.262 999.243,949.97C1007.63,938.679 1016.3,927.3 1018.5,924.683C1020.7,922.067 1023.46,918.256 1024.63,916.213C1025.8,914.171 1028.66,909.164 1030.99,905.086C1033.32,901.008 1036.02,895.383 1037.01,892.586C1037.99,889.789 1039.73,885.475 1040.88,883C1042.02,880.525 1042.97,877.451 1042.98,876.168C1042.99,874.885 1044.21,870.385 1045.69,866.168C1048.34,858.61 1048.38,858.119 1048.44,832C1048.5,806.323 1048.43,805.332 1046.15,800.085C1044.86,797.107 1043.4,791.803 1042.9,788.3C1042.4,784.796 1040.93,779.808 1039.62,777.215C1038.32,774.622 1036.93,771.15 1036.55,769.5C1036.17,767.85 1034.11,763.575 1031.97,760C1029.83,756.425 1026.75,751.025 1025.13,748C1020.85,740.041 997.071,716.909 985.607,709.561C972.681,701.276 960.79,695.231 953.174,693.076C949.503,692.037 945.094,690.465 943.375,689.583C941.656,688.7 937.729,687.512 934.647,686.942C931.565,686.373 926.896,684.957 924.272,683.796C915.677,679.994 888.262,679.17 818,680.601C788.125,681.209 786.113,681.37 779,683.711C773.723,685.447 767.796,686.423 759,687.004C749.591,687.625 744.769,688.463 739.5,690.393C734.444,692.246 730.501,692.964 725.302,692.979C720.415,692.993 715.515,693.818 710.045,695.546C705.612,696.946 698.085,698.535 693.318,699.076C688.55,699.618 682.591,700.972 680.075,702.086C677.504,703.223 671.703,704.461 666.833,704.911C661.121,705.438 656.725,706.463 653.937,707.916C651.46,709.207 646.446,710.493 641.844,711.018C637.52,711.511 631.871,712.848 629.292,713.989C626.712,715.13 621.574,716.493 617.873,717.018C614.172,717.543 608.852,718.876 606.05,719.98C603.248,721.085 597.703,722.509 593.728,723.146C589.752,723.782 584.867,725.116 582.871,726.11C580.875,727.104 576.538,728.353 573.233,728.885C569.928,729.417 565.011,730.974 562.307,732.345C559.602,733.715 555.614,735.133 553.445,735.495C551.275,735.857 545.45,737.457 540.5,739.05C523.446,744.539 518.479,745.905 511.5,747.022C507.65,747.638 502.388,749.012 499.806,750.075C497.225,751.137 492.275,752.635 488.806,753.402C485.338,754.169 479.8,755.702 476.5,756.809C473.2,757.917 467.575,759.804 464,761.002C460.425,762.201 454.8,763.859 451.5,764.686C448.2,765.513 443.025,767.222 440,768.484C436.975,769.746 432.7,771.094 430.5,771.48C428.3,771.866 424.614,773.04 422.31,774.088C420.005,775.137 415.73,776.502 412.81,777.121C409.889,777.74 405.794,779.11 403.708,780.165C401.623,781.22 397.362,782.556 394.24,783.133C391.118,783.71 386.877,785.043 384.815,786.095C382.753,787.146 378.689,788.499 375.783,789.1C372.877,789.701 368.25,791.251 365.5,792.544C362.75,793.837 358.7,795.198 356.5,795.569C354.3,795.94 351.15,797.038 349.5,798.009C347.85,798.98 343.8,800.536 340.5,801.466C337.2,802.396 333.582,803.745 332.46,804.464C331.338,805.183 327.738,806.309 324.46,806.966C321.182,807.624 316.832,809.008 314.793,810.042C312.754,811.077 308.376,812.625 305.062,813.484C301.749,814.342 297.567,815.891 295.769,816.926C293.971,817.96 291.112,819.094 289.416,819.446C285.608,820.236 279.594,826.25 273.282,835.578C266.43,845.703 251.826,865.052 243.325,875.266C235.094,885.156 233.777,888.25 236.619,891.007C238.26,892.6 239.246,892.712 244.347,891.887C247.563,891.367 251.852,890.096 253.879,889.062C255.905,888.028 260.024,886.725 263.032,886.167C266.039,885.609 270.665,884.222 273.311,883.086C275.957,881.949 281.07,880.548 284.674,879.972C288.277,879.397 292.862,878.109 294.863,877.11C296.863,876.112 300.75,874.756 303.5,874.097C306.25,873.438 310.768,872.064 313.539,871.042C316.311,870.021 320.811,868.867 323.539,868.477C326.268,868.087 330.694,866.685 333.376,865.362C336.057,864.039 341.007,862.56 344.376,862.076C347.744,861.592 352.75,860.319 355.5,859.246C358.25,858.174 363.341,856.751 366.814,856.085C370.286,855.419 375.056,854.048 377.412,853.038C379.769,852.028 384.841,850.713 388.684,850.117C392.527,849.521 397.739,848.118 400.265,847.001C402.792,845.883 408.248,844.539 412.389,844.014C416.531,843.489 422.525,841.98 425.71,840.662C429.006,839.297 434.584,838.02 438.661,837.698C442.82,837.369 447.85,836.204 450.661,834.92C453.349,833.692 458.963,832.358 463.291,831.918C467.576,831.483 473.709,830.218 476.92,829.107C480.131,827.995 486.544,826.616 491.17,826.041C495.796,825.466 502.263,824.05 505.541,822.894C508.818,821.737 515.893,820.407 521.263,819.937C527.57,819.384 532.703,818.319 535.763,816.928C539.425,815.262 543.593,814.584 554.128,813.94C563.355,813.375 570.621,812.31 576.628,810.64C583.912,808.615 588.633,808.074 603,807.62C617.652,807.156 621.477,806.707 626.5,804.859C632.332,802.715 633.664,802.653 674,802.669C713.457,802.685 715.869,802.791 723,804.837C727.125,806.02 736.125,807.422 743,807.953C751.541,808.612 757.242,809.601 761,811.075C764.025,812.261 769.731,813.605 773.679,814.06C777.628,814.515 782.592,815.771 784.711,816.852C786.83,817.933 791.024,819.275 794.032,819.834C797.039,820.392 801.975,822.004 805,823.415C808.025,824.826 811.054,825.985 811.731,825.99C813.476,826.004 836.812,837.041 850.34,844.25C856.819,847.702 869.717,855.769 873.576,858.783C875.184,860.039 880.311,863.823 884.969,867.192C894.033,873.747 920.537,899.114 925.5,905.984C927.15,908.268 930.924,913.342 933.886,917.259C944.849,931.758 961.347,962.687 964.369,974.408C966.049,980.921 967.037,981.962 971.563,981.985C974.09,981.997 975.443,980.995 979.306,976.25ZM708.148,922.75C707.195,921.799 698.782,921.5 672.997,921.5C647.211,921.5 638.8,921.799 637.849,922.75C636.85,923.75 643.88,924 673,924C702.121,924 709.15,923.75 708.148,922.75ZM888.585,676.75C888.996,676.337 888.996,675.663 888.583,675.25C887.463,674.129 843.574,673.735 835.5,674.774C829.146,675.591 828.731,675.779 831,676.817C833.819,678.105 887.293,678.044 888.585,676.75ZM408.681,651.503C413.731,650.684 419.356,649.143 421.181,648.079C423.007,647.014 427.401,645.625 430.946,644.992C434.491,644.359 438.991,643.032 440.946,642.044C442.901,641.055 446.885,639.741 449.8,639.123C452.715,638.505 456.352,637.352 457.883,636.56C459.414,635.769 463.779,634.402 467.583,633.523C471.388,632.644 477.277,630.816 480.671,629.462C484.064,628.108 488.114,626.989 489.671,626.976C491.227,626.963 495.2,625.826 498.5,624.45C501.8,623.073 507.452,621.561 511.059,621.091C514.667,620.62 519.392,619.333 521.559,618.23C523.727,617.126 528.806,615.713 532.846,615.088C536.886,614.463 541.481,613.285 543.057,612.47C544.633,611.656 549.02,610.337 552.807,609.541C556.593,608.744 561.943,607.205 564.694,606.12C567.446,605.036 573.11,603.674 577.28,603.094C581.451,602.514 586.686,601.089 588.913,599.928C591.141,598.767 596.189,597.412 600.132,596.917C604.074,596.422 610.045,594.942 613.4,593.628C616.755,592.314 622.558,590.945 626.295,590.587C630.033,590.228 635.383,589.032 638.184,587.927C640.985,586.823 646.927,585.443 651.389,584.859C655.85,584.276 661.516,582.924 663.98,581.854C666.462,580.777 672.707,579.501 677.98,578.995C683.216,578.492 690.2,577.127 693.5,575.961C696.922,574.752 704.079,573.456 710.157,572.943C716.655,572.395 722.873,571.232 726.092,569.964C729.455,568.638 735.568,567.537 742.936,566.93C749.296,566.406 757.425,565.096 761,564.019C768.723,561.692 785.192,560 800.112,560C806.032,560 813.716,559.364 817.188,558.586C836.524,554.254 883.409,553.786 903,557.73C908.775,558.893 918.675,560.279 925,560.81C932.068,561.404 938.963,562.639 942.891,564.015C954.097,567.94 970.311,568.101 974.072,564.325C974.881,563.512 957.266,550.307 944.96,542.5C941.492,540.3 934.57,535.904 929.577,532.73C924.585,529.557 918.025,525.607 915,523.953C908.25,520.262 893.524,511.264 889.476,508.357C887.835,507.179 882.669,504.19 877.996,501.716C873.323,499.242 866.35,495.44 862.5,493.268C858.65,491.096 846.05,484.473 834.5,478.552C822.95,472.63 812.825,467.233 812,466.557C811.175,465.882 808.925,464.727 807,463.99C805.075,463.253 802.306,461.829 800.846,460.825C799.386,459.821 797.902,459 797.549,459C797.196,459 793.543,457.425 789.432,455.5C785.32,453.575 781.635,452 781.242,452C780.85,452 778.272,450.91 775.514,449.578C770.402,447.108 757.086,441.221 744.5,435.867C740.65,434.229 735.7,432.028 733.5,430.975C728.357,428.514 718.001,424.319 711.054,421.883C708.059,420.832 704.684,419.383 703.554,418.662C702.424,417.941 698.798,416.605 695.495,415.692C692.192,414.78 687.709,413.126 685.533,412.017C683.357,410.908 680.749,410 679.738,410C678.726,410 674.434,408.718 670.199,407.15C657.424,402.421 649.88,399.926 642.074,397.847C637.989,396.759 633.399,395.224 631.874,394.435C630.348,393.646 626.715,392.518 623.8,391.929C620.885,391.34 615.125,389.803 611,388.514C606.875,387.225 601.072,385.883 598.105,385.531C595.138,385.18 590.912,383.976 588.715,382.855C586.518,381.734 580.282,380.194 574.857,379.432C569.432,378.671 563.533,377.275 561.747,376.33C559.546,375.165 553.809,374.221 543.943,373.4C534.275,372.595 528.062,371.584 525.443,370.388C521.89,368.765 518.237,368.594 488.5,368.65C459.371,368.705 455.035,368.918 451.538,370.458C448.883,371.628 442.781,372.538 433.038,373.216C421.873,373.992 417.224,374.755 413,376.502C409.975,377.753 405.025,379.106 402,379.508C398.975,379.911 394.475,381.256 392,382.497C389.525,383.738 385.925,385.079 384,385.477C382.075,385.875 377.35,388.025 373.5,390.255C369.65,392.485 364.475,395.318 362,396.551C356.639,399.222 334.345,421.114 329.531,428.434C325.101,435.17 319,447.317 319,449.4C319,450.316 317.883,453.27 316.519,455.963C314.942,459.075 313.686,463.892 313.072,469.18C312.542,473.756 311.123,480.2 309.919,483.5C307.838,489.206 307.727,491.142 307.651,523C307.575,554.992 307.665,556.68 309.639,560.5C310.776,562.7 312.262,567.425 312.941,571C313.621,574.575 314.982,578.85 315.967,580.5C316.952,582.15 318.32,585.3 319.007,587.5C321.168,594.419 333.497,613.087 340.211,619.606C357.933,636.815 384.886,652.631 397,652.93C398.375,652.964 403.632,652.322 408.681,651.503ZM1097.45,498.585C1099.31,497.806 1101.4,496.119 1102.08,494.835C1102.77,493.551 1105.64,489.575 1108.47,486C1111.3,482.425 1115.37,476.8 1117.52,473.5C1119.66,470.2 1123.72,464.8 1126.55,461.5C1129.37,458.2 1133.64,452.575 1136.02,449C1138.41,445.425 1142.45,440.025 1145.01,437C1147.56,433.975 1151.4,429.025 1153.53,426C1159.34,417.765 1177.77,393.135 1181.97,388C1183.99,385.525 1187.85,380.35 1190.54,376.5C1193.22,372.65 1197.53,367.025 1200.1,364C1202.68,360.975 1205.09,357.035 1205.47,355.245C1206.08,352.389 1205.72,351.562 1202.57,348.498C1200.59,346.577 1197.29,343.897 1195.23,342.542C1193.18,341.187 1187.67,337.343 1183,334.001C1178.33,330.659 1173.24,327.154 1171.69,326.213C1170.15,325.271 1164.97,321.986 1160.19,318.912C1155.41,315.839 1147,310.582 1141.5,307.229C1130.53,300.545 1117.55,292.366 1109.61,287.139C1106.8,285.29 1103.46,283.377 1102.18,282.887C1100.91,282.398 1098.43,280.939 1096.68,279.645C1094.93,278.352 1089.94,275.315 1085.6,272.897C1081.25,270.478 1075.3,267.15 1072.37,265.5C1069.44,263.85 1062.65,260.074 1057.27,257.11C1051.9,254.145 1044.21,249.735 1040.19,247.311C1036.16,244.886 1028.06,240.502 1022.19,237.568C1016.31,234.634 1009.92,231.446 1008,230.483C984.654,218.811 941.063,197.657 936,195.543C932.425,194.05 927.025,191.571 924,190.033C920.975,188.496 916.925,186.907 915,186.503C913.075,186.099 910.959,185.333 910.297,184.801C909.133,183.864 900.436,180.352 887,175.393C883.425,174.074 879.684,172.524 878.687,171.949C877.082,171.024 868.62,167.769 856.5,163.414C854.3,162.623 850.025,160.895 847,159.574C840.474,156.724 831.653,153.765 820,150.518C815.325,149.215 809.925,147.496 808,146.698C806.075,145.899 802.33,144.933 799.677,144.551C797.025,144.169 792.075,142.821 788.677,141.556C785.28,140.291 780.276,138.933 777.559,138.538C774.841,138.143 770.341,136.922 767.559,135.823C764.776,134.725 758.524,133.183 753.665,132.395C748.806,131.608 742.278,130.104 739.158,129.053C735.395,127.785 727.936,126.761 716.993,126.01C707.922,125.386 698.7,124.465 696.5,123.963C691.065,122.721 649.348,122.753 644.993,124.002C643.072,124.553 632.83,125.436 622.233,125.963C606.613,126.74 602.113,127.299 598.459,128.915C595.98,130.012 591.185,131.453 587.803,132.118C582.144,133.232 572.406,137.588 566.092,141.831C564.666,142.788 562.15,144.229 560.5,145.032C556.17,147.14 531.301,172.344 526,179.997C523.525,183.57 519.711,188.456 517.525,190.853C515.338,193.251 511.063,198.716 508.025,202.999C504.986,207.281 498,216.332 492.5,223.112C477.629,241.442 475.531,245.439 480.25,246.438C481.488,246.7 491.05,247.119 501.5,247.368C516.528,247.726 522.381,248.281 529.5,250.019C535.178,251.405 543.852,252.494 553,252.968C564.594,253.568 569.025,254.237 575.109,256.305C579.293,257.727 586.268,259.191 590.609,259.557C594.949,259.924 601.695,261.302 605.6,262.621C609.505,263.939 615.851,265.413 619.702,265.896C623.553,266.38 628.712,267.664 631.166,268.749C633.62,269.835 638.299,271.049 641.564,271.447C644.829,271.845 649.525,273.059 652,274.146C654.475,275.232 659.555,276.767 663.289,277.555C667.023,278.344 671.523,279.738 673.289,280.654C675.055,281.57 679.425,283.13 683,284.121C690.037,286.071 698.747,288.858 709,292.442C712.575,293.692 718.425,295.715 722,296.937C725.575,298.159 731.425,300.31 735,301.716C738.575,303.122 745.242,305.556 749.816,307.126C754.39,308.695 759.103,310.659 760.289,311.49C761.475,312.32 763.045,313 763.778,313C765.589,313 792.493,324.16 802.5,329.062C805.8,330.678 808.9,332.001 809.39,332C810.98,332 855.568,352.39 865.5,357.66C867.15,358.536 876.15,363.202 885.5,368.031C894.85,372.859 909.475,380.745 918,385.557C926.525,390.368 936.006,395.698 939.068,397.402C942.13,399.106 946.106,401.4 947.903,402.5C956.02,407.469 966.669,413.713 970.93,416C975.656,418.537 988.436,426.716 993,430.124C994.375,431.151 997.3,432.957 999.5,434.138C1004.18,436.651 1016.56,444.845 1026.5,452.008C1030.35,454.783 1036.88,459.312 1041,462.072C1048.23,466.913 1054.78,471.546 1075.5,486.5C1080.83,490.35 1086.69,494.496 1088.52,495.713C1090.34,496.929 1092.12,498.392 1092.48,498.963C1093.29,500.285 1093.4,500.276 1097.45,498.585ZM700.654,120.765C699.239,119.865 642.413,119.943 639.189,120.85C637.918,121.207 651.487,121.5 669.343,121.5C687.199,121.5 701.289,121.169 700.654,120.765Z" fill-rule="evenodd" fill-opacity="0.986111" fill="currentColor"/>
</g>
</svg>
